<svg xmlns="http://www.w3.org/2000/svg" version="1.1" xmlns:xlink="http://www.w3.org/1999/xlink" xmlns:svgjs="http://svgjs.dev/svgjs" width="2000" height="2245" viewBox="0 0 2000 2245"><g transform="matrix(1,0,0,1,2.225823491914298,0.9105852880343264)"><svg viewBox="0 0 220 247" data-background-color="#ffffff" preserveAspectRatio="xMidYMid meet" height="2245" width="2000" xmlns="http://www.w3.org/2000/svg" xmlns:xlink="http://www.w3.org/1999/xlink"><g id="tight-bounds" transform="matrix(1,0,0,1,-0.2447258526710243,-0.099973655792013)"><svg viewBox="0 0 220.4895664367816 247.2" height="247.2" width="220.4895664367816"><g><svg viewBox="0 0 220.48956643678162 247.20000000000002" height="247.2" width="220.4895664367816"><g><svg viewBox="0 0 220.48956643678162 247.20000000000002" height="247.20000000000002" width="220.48956643678162"><g id="textblocktransform"><svg viewBox="0 0 220.48956643678162 247.20000000000002" height="247.20000000000002" width="220.48956643678162" id="textblock"><g><svg viewBox="0 0 220.48956643678162 247.20000000000002" height="247.20000000000002" width="220.48956643678162"><path d="M219.973 53.02C218.937 27.36 215.983 20.227 215.983 20.227 206.913-6.202 195.593-0.506 185.425 3.292 167.471 3.446 149.59 9.091 131.678 12.119 94.082 12.581 56.164 4.986 18.755 23.717 15.241 29.464-3.646 24.846 0.625 56.304 1.745 69.39 5.829 83.913 5.704 95.922 6.264 98.026 7.041 93.202 7.373 96.23 8.534 104.39 10.431 100.541 11.986 105.365 9.819 118.246 11.374 128.971 12.857 140.21 10.244 143.135 6.896 141.749 5.393 151.449 5.238 158.479 4.398 157.145 3.476 156.837 2.802 156.632 1.444 157.402 1.672 159.608 2.449 167.152-0.888 171.514 1.206 178.904-0.235 186.91 2.201 193.838 1.869 202.511 1.827 204.255 2.056 205.744 2.418 206.154 4.025 208.361 1.682 212.672 1.931 217.342 18.413 249.262 36.293 227.195 53.179 241.872 57.564 231.608 54.267 245.516 56.019 243.36 57.388 240.846 58.383 251.263 59.927 245.362 60.166 243.668 59.803 239.665 60.653 240.435 61.098 240.846 61.492 240.743 61.555 238.382 61.648 234.841 60.829 237.048 60.611 235.201 62.964 225.861 62.384 248.081 64.592 247.158 64.488 244.438 63.845 240.538 65.162 241.051 66.468 237.151 66.509 233.918 67.67 242.693 67.712 244.592 67.919 245.926 68.251 246.85 71.879 237.305 75.486 250.237 79.29 245.926 81.623 241.205 83.862 248.492 86.225 246.696 87.054 245.259 87.894 242.693 88.692 247.004 98.467 247.928 108.884 244.079 118.151 247.158 142.915 241.41 169.378 249.518 195.49 241.923 201.647 238.998 208.042 234.841 214.044 231.506 214.044 231.506 218.906 222.371 218.906 181.316S219.942 145.393 220.098 112.703C220.253 80.013 220.979 78.679 219.942 53.02Z" opacity="1" fill="#ed2647" data-fill-palette-color="tertiary"></path><g transform="matrix(1,0,0,1,55.76832,26.230666666666668)"><svg width="108.95292643678161" viewBox="-0.1600000113248825 -34.79999923706055 19.469999313354492 34.79999923706055" height="194.7386666666667" data-palette-color="#ff908b"><path d="M12.4 0L6.65 0Q6.5 0 6.5-0.2L6.5-0.2 6.55-14.4-0.15-34.6Q-0.2-34.8 0-34.8L0-34.8 5.55-34.8Q5.8-34.8 5.85-34.6L5.85-34.6 9.55-21.15 13.3-34.6Q13.35-34.8 13.55-34.8L13.55-34.8 19.15-34.8Q19.35-34.8 19.3-34.6L19.3-34.6 12.55-14.6 12.6-0.2Q12.6 0 12.4 0L12.4 0Z" opacity="1" transform="matrix(1,0,0,1,0,0)" fill="#ff908b" class="wordmark-text-0" data-fill-palette-color="quaternary" id="text-0"></path></svg></g></svg></g></svg></g></svg></g><g></g></svg></g><defs></defs></svg><rect width="220.4895664367816" height="247.2" fill="none" stroke="none" visibility="hidden"></rect></g></svg></g></svg>